<?xml version="1.0" standalone="no"?>
<!DOCTYPE svg PUBLIC "-//W3C//DTD SVG 20010904//EN"
 "http://www.w3.org/TR/2001/REC-SVG-20010904/DTD/svg10.dtd">
<svg version="1.0" xmlns="http://www.w3.org/2000/svg"
 width="600.000000pt" height="600.000000pt" viewBox="0 0 600.000000 600.000000"
 preserveAspectRatio="xMidYMid meet">
<metadata>
Created by potrace 1.11, written by Peter Selinger 2001-2013
</metadata>
<g transform="translate(0.000000,600.000000) scale(0.100000,-0.100000)"
fill="#000000" stroke="none">
<path d="M2705 5447 c-28 -7 -73 -24 -99 -37 -65 -31 -175 -136 -206 -197 -14
-26 -27 -50 -30 -53 -3 -3 -17 -39 -30 -80 -36 -107 -34 -258 4 -385 14 -49
30 -99 35 -110 44 -97 145 -360 170 -440 77 -254 108 -602 68 -753 l-14 -53
21 14 c62 41 168 210 195 312 21 83 24 103 27 235 6 226 15 276 66 353 27 42
84 77 123 77 47 0 111 -44 128 -89 30 -74 8 -147 -83 -271 -103 -140 -135
-257 -105 -378 6 -23 7 -22 34 15 57 78 169 164 301 232 148 76 288 172 282
193 -1 5 1 7 6 4 5 -3 15 3 23 12 176 210 276 441 281 651 6 274 -137 501
-367 582 -77 27 -204 32 -285 12 l-60 -15 -44 40 c-56 51 -118 90 -181 114
-64 24 -194 31 -260 15z m-60 -1206 c3 -5 2 -12 -3 -15 -5 -3 -9 1 -9 9 0 17
3 19 12 6z"/>
<path d="M1445 5234 c-154 -38 -291 -142 -374 -282 -46 -78 -97 -223 -106
-302 -3 -30 -8 -68 -10 -85 -2 -16 -4 -37 -4 -45 -1 -13 -24 -15 -148 -15 -82
0 -170 -4 -196 -8 -81 -13 -208 -57 -201 -69 5 -7 2 -8 -5 -3 -17 10 -90 -29
-142 -76 -24 -21 -46 -40 -49 -41 -10 -4 -94 -120 -107 -148 -60 -128 -78
-203 -77 -335 0 -106 6 -139 40 -213 59 -129 179 -255 317 -333 212 -120 351
-173 507 -193 19 -3 44 -7 55 -9 110 -25 603 -25 718 -1 42 9 282 5 352 -5
136 -20 209 -38 313 -74 39 -14 72 -24 72 -21 0 2 -13 31 -29 63 -64 125 -202
227 -424 311 -96 37 -155 81 -182 134 -40 80 -29 150 31 210 109 108 238 82
400 -83 90 -90 182 -223 239 -344 41 -89 43 -90 50 -59 27 127 27 428 -2 577
-3 17 -6 40 -6 53 -1 12 -3 22 -6 22 -4 0 -7 17 -7 38 -1 20 -9 68 -19 105 -9
37 -18 73 -19 80 -16 76 -19 86 -29 80 -6 -3 -7 -1 -3 5 17 27 -92 329 -180
497 -45 88 -133 229 -170 275 -93 114 -176 192 -251 236 -106 63 -239 85 -348
58z"/>
<path d="M5125 4708 c-76 -67 -15 -198 93 -200 100 -1 159 89 108 166 -36 56
-153 75 -201 34z"/>
<path d="M4813 4704 c-59 -31 -72 -96 -32 -161 47 -75 146 -84 206 -19 44 48
46 106 5 156 -26 30 -34 34 -88 37 -40 2 -69 -2 -91 -13z"/>
<path d="M5484 4686 c-38 -17 -60 -64 -47 -102 26 -77 186 -116 231 -57 9 12
12 34 9 63 -7 63 -59 110 -119 110 -24 -1 -57 -7 -74 -14z"/>
<path d="M5790 4478 c-74 -38 -102 -123 -55 -168 37 -34 145 -40 192 -11 60
38 53 141 -11 181 -38 23 -76 23 -126 -2z"/>
<path d="M5347 4444 c-1 -1 -63 -4 -137 -8 -74 -3 -151 -8 -170 -11 -19 -2
-57 -7 -85 -10 -857 -106 -1596 -554 -2061 -1251 -119 -178 -156 -259 -160
-347 -5 -105 31 -145 100 -112 51 24 106 89 243 280 194 273 305 407 493 595
128 128 150 148 263 238 194 154 425 282 652 360 166 58 432 109 660 126 85 7
205 17 363 31 99 9 167 43 147 76 -11 18 -93 31 -198 33 -60 0 -109 0 -110 0z"/>
<path d="M5485 4256 c-47 -27 -66 -60 -59 -107 6 -38 44 -93 77 -110 51 -28
134 -1 167 54 53 87 -13 181 -123 176 -24 -2 -52 -7 -62 -13z"/>
<path d="M5173 4240 c-98 -31 -110 -160 -21 -235 68 -57 194 -12 213 76 24
107 -80 193 -192 159z"/>
<path d="M4810 4185 c-59 -32 -65 -115 -12 -168 96 -96 265 -3 205 112 -32 62
-131 91 -193 56z"/>
<path d="M4537 3704 c-1 -1 -51 -4 -112 -8 -108 -6 -135 -9 -223 -21 -50 -7
-58 -9 -166 -31 -93 -19 -129 -31 -216 -72 -134 -63 -265 -167 -369 -292 -64
-76 -124 -177 -115 -191 4 -7 3 -9 -3 -6 -12 7 -42 -58 -66 -138 -17 -59 -23
-205 -8 -205 5 0 11 3 13 8 4 11 145 123 194 154 112 72 257 132 374 153 207
37 413 -14 451 -112 16 -44 -5 -110 -50 -153 -19 -19 -94 -50 -120 -50 -11 0
-22 -6 -24 -12 -3 -7 -6 -8 -6 -3 -1 11 -371 12 -436 1 -123 -21 -255 -82
-238 -109 3 -6 1 -7 -5 -3 -12 7 -54 -25 -83 -65 l-19 -26 72 -2 c125 -3 255
-37 403 -107 85 -40 238 -133 475 -290 244 -160 448 -265 562 -288 116 -24
153 -27 218 -23 132 10 241 60 329 152 24 25 41 45 37 45 -4 0 3 10 14 22 11
12 18 28 15 36 -2 7 0 10 5 7 6 -3 11 -1 11 4 3 21 4 26 12 38 14 22 33 140
31 193 -3 94 -47 231 -87 272 -7 7 -20 23 -28 36 -23 33 -139 123 -150 117 -5
-4 -9 -1 -9 5 0 11 -115 70 -145 74 -25 4 -27 14 -5 26 64 34 180 157 214 226
15 29 27 56 27 59 0 2 4 18 9 34 5 19 4 33 -3 41 -9 10 -9 11 1 6 19 -11 13
66 -10 129 -10 27 -18 51 -18 53 0 2 -5 0 -12 -4 -6 -4 -8 -3 -5 3 9 14 -45
87 -102 141 -51 48 -140 102 -171 105 -11 1 -20 4 -20 8 0 6 -9 9 -95 29 -72
17 -81 18 -161 25 -72 7 -183 12 -187 9z"/>
<path d="M1778 2915 c-2 -2 -37 -5 -78 -6 -41 -1 -92 -6 -115 -10 -22 -4 -74
-13 -115 -19 -143 -23 -407 -126 -396 -155 2 -6 -4 -11 -15 -11 -23 1 -122
-83 -171 -145 -46 -59 -91 -149 -107 -213 -15 -62 -15 -177 -1 -216 1 -3 3 -9
4 -15 10 -54 59 -157 121 -255 31 -50 160 -180 178 -180 7 0 23 -9 35 -18 22
-17 23 -22 13 -58 -45 -173 -25 -373 51 -517 115 -214 382 -349 693 -349 308
1 566 132 740 376 25 35 45 66 45 70 0 3 13 27 29 53 48 78 137 315 126 333
-3 5 -2 10 3 10 16 0 35 135 37 271 3 153 -15 283 -58 410 -26 75 -83 209 -90
209 -2 0 -23 -26 -45 -58 -105 -150 -295 -282 -497 -345 -96 -30 -132 -36
-222 -38 -141 -2 -209 37 -219 127 -14 116 89 231 251 280 66 20 96 23 250 28
139 5 152 7 227 32 86 28 150 111 117 150 -14 18 -124 94 -134 94 -4 0 -20 9
-37 21 -16 12 -32 19 -35 16 -3 -4 -11 0 -19 8 -27 27 -225 92 -244 80 -6 -3
-10 -2 -10 3 0 12 -59 21 -180 28 -52 3 -103 7 -112 8 -9 2 -18 2 -20 1z m393
-1392 c13 -16 12 -17 -3 -4 -10 7 -18 15 -18 17 0 8 8 3 21 -13z"/>
<path d="M3200 2460 c0 -25 63 -156 104 -219 49 -73 153 -186 204 -220 17 -12
32 -20 32 -17 0 11 85 -73 115 -114 99 -137 92 -271 -15 -300 -64 -17 -107 -2
-177 63 -35 32 -125 163 -128 187 -4 23 -18 50 -27 50 -6 0 -9 3 -5 6 6 6 -30
112 -55 164 -81 166 -209 280 -334 297 l-45 6 21 -38 c28 -50 73 -184 72 -212
-1 -13 2 -23 7 -23 9 0 8 -350 -1 -366 -3 -5 -9 -51 -12 -102 -4 -51 -9 -102
-11 -112 -15 -79 -22 -365 -11 -444 43 -300 136 -446 318 -498 63 -18 198 -21
269 -7 24 5 58 12 74 15 17 3 33 10 36 16 3 5 9 9 13 8 16 -4 86 32 141 73 72
54 139 134 167 199 l20 47 87 0 c47 0 96 2 107 5 12 2 39 7 60 11 182 28 331
129 394 266 43 94 52 218 22 319 -11 38 -25 64 -32 62 -6 -1 -9 2 -5 8 11 18
-44 100 -119 175 -51 51 -134 113 -291 217 -121 80 -232 151 -247 159 -15 8
-73 42 -130 75 -131 78 -350 184 -449 218 -93 31 -169 43 -169 26z"/>
</g>
</svg>
