<svg xmlns="http://www.w3.org/2000/svg" width="22.293" height="22.293" viewBox="0 0 22.293 22.293"><path fill="#333" d="M6.208 14.23H17.31c.34 0 .627.12.87.365.242.24.365.533.365.867 0 .34-.123.63-.365.87-.243.245-.53.364-.87.364H4.975c-.336 0-.626-.12-.87-.363-.242-.242-.363-.53-.363-.87V3.127H1.274c-.337 0-.627-.122-.87-.364C.16 2.52.04 2.232.04 1.894c0-.337.12-.627.363-.87S.936.66 1.273.66h3.7c.338 0 .628.12.872.364.242.243.363.533.363.87v2.468h16.038l-4.935 8.634H6.21v1.234zm-1.925 4.245c.362-.36.798-.545 1.308-.545s.946.184 1.31.545c.36.36.54.8.54 1.31s-.18.944-.54 1.305c-.364.36-.8.543-1.31.543s-.944-.182-1.307-.543c-.362-.36-.542-.797-.542-1.307s.18-.947.543-1.308zm11.104 0c.36-.36.797-.545 1.308-.545.51 0 .945.184 1.307.545.362.36.544.8.544 1.31s-.182.944-.544 1.306c-.36.362-.797.544-1.307.544-.51 0-.946-.182-1.308-.543-.363-.36-.544-.796-.544-1.306s.18-.948.544-1.31z"/></svg>
