<svg xmlns="http://www.w3.org/2000/svg" width="22.293" height="22.293" viewBox="0 0 22.293 22.293"><path fill="#333" d="M21.59 19.078l-2.512 2.508c-.33.332-.794.516-1.256.516-.46 0-.92-.184-1.25-.516l-5.425-5.422-5.423 5.422c-.333.332-.794.516-1.255.516-.46 0-.923-.184-1.254-.516l-2.51-2.508c-.33-.334-.517-.793-.517-1.256 0-.46.185-.92.516-1.254l5.423-5.423-5.424-5.42C.376 5.39.19 4.93.19 4.47s.186-.922.517-1.255L3.217.707C3.547.375 4.01.19 4.47.19c.46 0 .922.185 1.255.516l5.423 5.422L16.572.706c.33-.33.79-.515 1.25-.515.463 0 .926.185 1.257.516l2.51 2.508c.328.333.516.794.516 1.255s-.188.92-.516 1.255l-5.425 5.42 5.425 5.423c.328.334.516.795.516 1.254-.002.463-.19.922-.517 1.256z"/></svg>