<svg xmlns="http://www.w3.org/2000/svg" width="22.293" height="22.293" viewBox="0 0 22.293 22.293"><path fill="#333" d="M22.167 4.718c0 .502-.417.918-.92.918H1.046c-.5 0-.918-.416-.918-.918V2.882c0-.502.417-.918.918-.918h20.203c.502 0 .92.417.92.918v1.836zm0 7.346c0 .5-.417.918-.92.918H1.046c-.5 0-.918-.417-.918-.918v-1.837c0-.502.417-.918.918-.918h20.203c.502 0 .92.415.92.917v1.837zm0 7.347c0 .502-.417.92-.92.92H1.046c-.5 0-.918-.418-.918-.92v-1.837c0-.502.417-.918.918-.918h20.203c.502 0 .92.416.92.918v1.838z"/></svg>