<svg xmlns="http://www.w3.org/2000/svg" width="22.293" height="22.293" viewBox="0 0 22.293 22.293"><path fill="#333333" d="M0 20.58c0-.457.188-.9.495-1.207l4.596-4.595c-1.084-1.57-1.66-3.444-1.66-5.346C3.43 4.22 7.65 0 12.86 0c5.213 0 9.433 4.22 9.433 9.432 0 5.21-4.22 9.432-9.432 9.432-1.9 0-3.777-.576-5.345-1.662L2.92 21.784c-.31.322-.75.51-1.206.51C.776 22.294 0 21.516 0 20.58zM6.86 9.43c0 3.31 2.692 6.002 6 6.002s6.003-2.693 6.003-6.002c0-3.31-2.693-6.002-6.002-6.002s-6 2.693-6 6.002z"/></svg>
