<svg xmlns="http://www.w3.org/2000/svg" width="442.197" height="71.011" viewBox="0 0 442.197 71.011"><path fill="#DB605F" d="M441.74 47.855c-1.207-.997-1.853.496-2.56 1.19-1.602 1.58-3.103 3.26-4.725 4.816-2.004 1.926-3.042 2.483-5.133 2.95 2.155-4.284 1.22-8.244-1.09-11.936-3.032-4.856-.823-8.83 2.114-11.58.8-.75 1.652-1.43 1.953-2.525.37-1.35.14-2.228-1.577-2.307-3.955-.182-7.42 1.81-9.102 5.37-.39.82-.742 1.684-1.283 2.4-3.312 4.383-6.573 8.81-10.048 13.06-2.53 3.092-5.218 6.11-9.236 7.794 1.462-6.417 1.58-6.993-1.446-12.356-2.727-4.83-.678-8.67 2.187-11.397.72-.687 1.54-1.265 1.885-2.274.54-1.574.397-2.56-1.645-2.59-4.106-.06-7.24 1.82-8.966 5.54-.313.675-.61 1.374-1.04 1.973-5.137 7.188-10.68 14.052-16.59 20.613-2.124 2.357-4.43 4.55-7.29 6.006-2.675 1.363-5.605 2.986-8.473 1.225-3.16-1.94-2.722-5.253-2.348-8.55.23-2.03 1.066-2.5 2.764-2.95 6.347-1.682 10.23-6.02 12.092-12.144 1.154-3.79-.775-6.038-4.705-6.207-9.56-.41-16.187 3.97-20.544 12.26-2.366 4.508-6.04 7.918-9.833 11.17-1.297 1.11-3.282 2.523-4.67 1.27-1.335-1.207.24-3.072 1.03-4.457 1.608-2.816 3.562-5.44 4.815-8.446.997-2.395 1.454-4.968-.625-6.997-2.124-2.072-4.728-1.706-7.23-.603-3.512 1.546-6.09 4.3-8.787 6.9-.654.63-1.103 1.784-2.556 1.277 1.718-3.095 2.804-6.337 2.96-9.867.072-1.633-.606-2.664-1.984-3.42-3.43-1.887-4.747-1.507-6.406 2.064-2.1 4.52-3.495 9.53-6.35 13.5-4.802 6.673-11.19 11.86-18.99 14.92-4.085 1.6-7.368-.834-7.338-5.264.023-3.532 1.167-6.866 1.983-10.26.382-1.59 1.157-2.833 2.33-3.987C292.578 36.86 300.65 30.5 307.5 22.854c3.71-4.14 6.555-8.79 8.146-14.09 1.18-3.924-.342-6.27-4.164-7.803-6.01-2.41-11.078.037-15.013 3.914-11.78 11.612-19.186 25.983-24.433 41.515-.745 2.205-1.732 4.12-3.412 5.67-2.876 2.655-5.74 5.326-8.956 7.58-2.257 1.584-4.63 2.96-7.23 3.895-4.175 1.505-7.395-.72-7.48-5.12-.05-2.532.692-4.933 1.195-7.372.66-3.207 1.85-5.98 4.426-8.354 7.274-6.71 14.997-12.974 21.514-20.46 3.557-4.084 6.395-8.72 7.732-14.054.806-3.214-.555-5.348-3.537-6.87-5.66-2.886-11.82-.57-16.27 4-9.084 9.327-15.965 20.148-20.58 32.418-1.368 3.636-3.234 7.085-4.115 10.92-.142.615-.532 1.23-.956 1.716-2.357 2.696-4.66 5.45-7.173 7.996-2.584 2.618-5.48 4.86-9.207 5.71-4.987 1.14-7.868-1.375-7.432-6.53.055-.66.38-1.33.307-1.965-.265-2.267.993-2.814 2.93-3.326 6.26-1.65 10.007-6.022 11.89-12.025.954-3.036-.47-5.85-2.936-6.133-12.273-1.407-20.925 5.74-23.56 15.903-2.173 8.368 1.02 14.847 8.1 17.333 5.733 2.015 11.252 1.615 16.4-1.993 3.723-2.607 7.15-5.52 10.39-9.555 0 2.377-.11 4.043.02 5.69.437 5.596 5.247 10.477 9.87 9.404 5.7-1.32 11.494-2.61 16.21-6.648 3.17-2.714 6.823-4.855 9.885-8.597 0 2.332-.086 3.984.016 5.625.347 5.615 4.973 10.558 9.676 9.62 5.088-1.01 10.338-2.077 14.627-5.353 3.94-3.01 8.265-5.56 11.457-9.667.317.48.52.737.67 1.022.866 1.65 2.272 2.396 4.084 2.35 1.86-.05 2.774-1.293 3.366-2.873.325-.87.776-1.636 1.543-2.216 4.068-3.074 7.71-6.61 11.187-10.328.505-.54 1.112-1.02 1.752-1.386.86-.494 1.916-1.072 2.73-.148.783.89-.08 1.677-.622 2.4-1.9 2.526-3.84 5.028-5.688 7.594-1.09 1.51-1.796 3.21-1.596 5.133.402 3.863 4.12 5.926 8.778 4.96 5.11-1.06 8.95-4.198 12.95-7.98.205 6.434 2.972 10.783 8.662 12.873 5.704 2.095 11.173 1.646 16.42-1.826 7.692-5.088 12.828-12.484 18.31-19.592 1.19-1.542 2.23-3.21 3.896-4.628.655 2.312 1.233 4.373 1.826 6.43 1.303 4.52.834 5.813-2.92 8.444-1.073.753-2.312.893-3.505 1.22-2.602.715-4.52 3.168-4.587 5.827-.03 1.284.544 1.91 1.8 1.76 7.23-.877 14.267-2.31 20.52-6.408 5.172-3.395 8.32-8.538 11.955-13.278 1.028-1.34 1.828-2.9 3.48-3.927.828 3.07 1.594 5.95 2.388 8.822.396 1.433-.016 2.67-.99 3.673-1.57 1.613-3.207 3.035-5.62 3.453-2.91.504-4.583 2.568-4.983 5.453-.224 1.61.358 2.412 2.052 2.2 5.886-.73 11.722-1.775 17.03-4.535 4.312-2.24 8.25-5.056 10.587-9.556.488-.936 1.46-2.07.427-2.923m-83.364 1.317c.96-4.92 3.46-8.894 7.434-11.915.56-.425 1.376-.51 1.777-.65 2.035-.032 3.117 1.405 2.764 3.227-.75 3.874-6.83 9.603-10.783 10.126-.555.07-1.442.497-1.19-.79M299.402 17.3c2.264-2.69 3.74-6.08 6.297-8.616 1.244-1.235 2.646-3.438 4.46-2.304 2 1.252.355 3.458-.165 5.184-.255.845-.844 1.617-1.39 2.342-5.25 6.97-11.05 13.47-17.047 19.796-.854.9-.89.866-2.667 1.362C292 28.642 294.95 22.59 299.4 17.3m-36-.008c2.354-2.836 3.948-6.337 6.65-8.97 1.155-1.127 2.487-2.966 4.13-1.967 1.905 1.156.43 3.17 0 4.75-.255.93-.84 1.812-1.43 2.6-5.335 7.114-11.23 13.75-17.377 20.165-.54.565-1.003 1.417-2.343.97 2.927-6.232 5.962-12.232 10.372-17.548m-51.428 31.2c.987-4.308 3.336-7.777 6.516-10.695 1.097-1.007 2.566-1.638 4.15-.922.94.425 1.162 1.346 1.318 2.366-.083.326-.135.75-.298 1.124-2.028 4.664-5.342 7.963-10.248 9.532-1.287.41-1.78.09-1.438-1.403m3.4-42.765c-1.217-.53-2.204 1.406-3.14 2.426-5.817 6.348-8.97 14.298-13.098 21.673-5.055 9.026-7.57 19.117-12.164 28.34-1.105 2.218-1.226 4.842-4.303 5.453-2.267.45-4.11-.056-5.567-1.867-1.73-2.15-2.473-4.7-2.84-7.36-1.228-8.92-1.294-17.886-1.034-26.866.05-1.71.006-3.425.006-5.138l-.498-.125c-.614 1.304-1.376 2.56-1.816 3.92-2.304 7.125-5.3 13.995-8.38 20.777-2.192 4.824-4.3 9.68-6.402 14.543-1.05 2.426-2.69 3.98-5.55 3.744-2.67-.22-5.036-2.073-5.796-4.777-.356-1.27-.652-2.642-.553-3.936.44-5.728-.163-11.455-.292-17.154-.17-7.483.083-14.987-.447-22.46-.215-3.05.68-5.78 2.007-8.374 1.528-2.99 4.774-4.134 7.337-2.826 1.964 1.003 2.453 2.693 2.465 4.78.06 11.652 1.823 23.235 1.434 34.908-.018.55-.125 1.174.504 1.833 2.218-3.124 4.125-6.377 5.387-9.902 1.518-4.237 3.4-8.303 5.248-12.385 1.857-4.107 3.255-8.354 4.467-12.68.208-.74.4-1.442.213-2.195-.536-2.168.375-3.774 2.098-4.912 1.876-1.24 3.825-.947 5.633.227 3.11 2.02 4.038 5.215 4.925 8.612 2.696 10.333 1.78 20.85 1.943 31.315.01.582 0 1.165 0 2.05 1.21-1.032 1.47-2.292 1.864-3.448 3.075-9.007 5.902-18.043 10.477-26.54 2.69-4.992 6.028-9.28 9.49-13.6.566-.705 1.26-1.343 1.99-1.876 2.758-2.002 6.588-1.665 8.628.7 2.02 2.348 1.72 6.96-.588 9.17-.878.843-1.907 1.087-2.983.59-1.187-.544-.92-1.62-.717-2.613.016-.08.066-.156.076-.237.175-1.315 1.6-3.09-.026-3.796M48.14 17.574C47.052 7.062 42.055 2.78 32.122 4.296 24.29 5.49 17.392 9.494 11.95 15.782c-3.9 4.503-6.76 9.58-8.668 14.998-3.135 8.907-5.105 18.043-.793 27.36 2.85 6.16 9.56 10.33 16.25 9.167 4.515-.783 8.784-2.314 12.433-5.363 4.893-4.09 8.468-9.248 11.215-14.8 4.025-8.13 5.606-16.99 5.773-26.073 0-1.165.106-2.34-.014-3.493m-7-.782c-.34 6.02-1.512 11.865-3.976 17.385-3.283 7.35-6.15 14.923-11.234 21.333-2.14 2.698-4.282 5.317-7.865 6.197-2.792.688-4.065-.107-4.482-2.994-.543-3.76-.068-7.345.96-11.055 2.405-8.676 5.866-16.96 9.39-25.17 1.864-4.347 3.866-9.076 8.224-11.92 2.035-1.326 4.134-2.244 6.522-.893 2.32 1.314 2.493 3.554 2.464 5.868-.006.417 0 .834 0 1.25m95.908 30.965c.703.508.772 1.306.385 2.024-3.707 6.892-11.787 12.11-19.973 9.444-3.353-1.093-5.3-4.698-4.645-8.158.276-1.452.687-2.878 1.188-4.943-4.36 3.53-8.184 6.58-11.955 9.694-3.21 2.653-6.753 4.653-10.933 5.04-5.07.475-8.844-1.706-11.227-6.402-3.097 3.126-6.495 5.625-10.51 7.186-.925.36-1.868.71-2.835.912-6.05 1.266-9.81-2.506-8.53-8.534.787-3.712 2.586-6.994 4.42-10.26.8-1.422 1.163-2.776-.433-3.956-1.56-1.154-2.687-1.728-3.918.68-1.977 3.862-5.02 7.03-7.788 10.357-.507.61-1.04 1.54-2.005.83-1.014-.747-.782-1.753-.132-2.65 2.638-3.638 5.233-7.31 7.98-10.866 1.06-1.373 1.327-2.438.68-4.197-1.61-4.376.9-9.837 5.002-11.512 1.497-.612 3.183-1.02 4.463.232 1.183 1.157.477 2.635-.008 3.972-.49 1.35-1.335 2.48-2.16 3.63-1.423 1.99-1.167 3.475.92 4.765.983.606 2.097 1 3.152 1.486 3.798 1.757 4.85 4.206 3.332 8.098-.478 1.227-1.225 2.355-1.907 3.494-1.24 2.073-2.42 4.18-3.12 6.5-.75 2.477.353 3.74 2.88 3.238.955-.19 1.995-.54 2.73-1.142 3.84-3.142 7.13-6.352 8.673-11.625 4.406-15.07 17.246-22.185 31.908-19.62.486.085.97.232 1.427.42 1.85.766 3.692 1.767 3.12 4.127-.53 2.19-2.558 2.127-4.325 1.895-3.62-.474-6.59.997-9.105 3.267-4.77 4.3-8.348 9.46-10.194 15.698-.282.957-.76 2.098.112 2.822.936.776 1.916-.092 2.692-.632 6.42-4.463 13.02-8.695 18.58-14.273 1.308-1.313 2.662-2.54 4.466-3.098 1.854-.57 3.63-.523 5.06 1.034 1.276 1.39 1.646 2.773.236 4.4-2.673 3.08-4.17 6.8-5.126 10.69-.816 3.32.458 4.49 3.883 3.968 3.355-.513 6.04-2.26 8.415-4.56 1.016-.982 1.992-2.01 2.943-3.057.65-.714 1.37-1.002 2.184-.414"/></svg>
